<svg width="131" height="40" viewBox="0 0 131 40" fill="none" xmlns="http://www.w3.org/2000/svg">
<path d="M67.24 5.22C67.132 4.896 66.916 4.392 66.916 4.032C66.916 2.664 68.644 3.708 68.644 2.34V1.692H61.084V2.34C61.084 3.888 62.272 2.16 63.244 4.752L71.704 27.252H73.504L81.856 5.58C83.368 1.62 84.484 3.816 84.484 2.34V1.692H78.364V2.34C78.364 3.528 80.056 2.628 80.056 4.176C80.056 4.752 79.768 5.616 79.552 6.156L73.576 22.032L67.24 5.22ZM89.9476 9.648L84.7276 9.792V10.44C84.7276 11.988 86.4916 10.404 86.4916 12.852V23.94C86.4916 26.388 84.7276 24.804 84.7276 26.352V27H91.6756V26.352C91.6756 24.804 89.9476 26.388 89.9476 23.94V9.648ZM85.0156 7.74L89.6956 5.688L90.4876 5.328C91.3876 4.86 92.3956 4.428 92.3956 3.276C92.3956 2.412 91.7476 1.692 90.8476 1.692C89.9476 1.692 89.0116 2.52 88.3636 3.06L84.1516 6.372L85.0156 7.74ZM103.205 23.04L99.3534 13.716C99.2094 13.356 98.8854 12.744 98.8854 12.312C98.8854 11.088 100.901 11.808 100.901 10.44V9.792H92.5854V10.44C92.5854 12.132 93.7014 9.936 95.2134 13.356L101.405 27.252H103.385L109.289 13.716C110.945 9.864 112.205 12.096 112.205 10.44V9.792H105.365V10.44C105.365 11.808 107.381 11.016 107.381 12.492C107.381 13.32 106.553 15.228 106.193 16.02L103.205 23.04ZM123.439 20.916C123.439 24.948 120.667 25.812 119.371 25.812C117.463 25.812 116.419 24.408 116.419 22.572C116.419 18.936 120.523 17.712 123.439 17.46V20.916ZM123.331 16.128C119.731 16.488 112.603 17.64 112.603 22.5C112.603 25.776 115.627 27.54 118.615 27.54C120.919 27.54 122.251 26.676 123.799 25.02C124.339 26.532 125.455 27.54 127.111 27.54C128.371 27.54 129.883 26.604 129.883 25.884C129.883 25.668 129.703 25.488 129.595 25.344L129.451 25.128C129.163 25.38 128.911 25.596 128.479 25.596C126.787 25.596 126.895 22.824 126.895 21.708V16.092C126.895 15.084 126.859 9.252 119.731 9.252C118.075 9.252 114.295 10.08 114.295 12.312C114.295 13.392 115.159 14.076 116.167 14.076C117.319 14.076 118.147 13.284 118.255 12.132C118.363 11.16 118.651 10.584 119.767 10.584C122.863 10.584 123.331 13.824 123.331 16.128Z" fill="#056954"/>
<path d="M2.99998 18.314C6.97198 18.314 10.946 16.712 13.628 14.028L18.656 9.00001" stroke="#056954" stroke-width="3" stroke-miterlimit="10" stroke-linecap="round"/>
<path d="M51.084 11.688C45.342 11.688 39.562 14.038 35.628 17.974L30.6 23.002" stroke="#056954" stroke-width="3" stroke-miterlimit="10" stroke-linecap="round"/>
</svg>
